<svg xmlns="http://www.w3.org/2000/svg" width="25" height="25" viewBox="0 0 25 25">
    <g fill="none" fill-rule="evenodd">
        <g fill="#333" fill-rule="nonzero">
            <g>
                <g>
                    <path d="M22.894 0H2.081C.937 0 0 .937 0 2.081v20.814c0 1.143.937 2.08 2.081 2.08h20.813c1.145 0 2.082-.937 2.082-2.08V2.08C24.976.937 24.039 0 22.894 0zm0 22.895H14.57v-8.326h5.203v-2.081H14.57v-2.082c0-1.724 1.398-3.122 3.122-3.122h2.081V5.203h-2.08c-2.874 0-5.204 2.329-5.204 5.203v2.082h-2.082v2.08h2.082v8.327H2.08V2.08h20.813v20.814z" transform="translate(-878 -6979) translate(0 6787) translate(878 192)"/>
                </g>
            </g>
        </g>
    </g>
</svg>
