<svg xmlns="http://www.w3.org/2000/svg" width="25" height="25" viewBox="0 0 25 25">
    <g fill="none" fill-rule="evenodd">
        <g fill="#333" fill-rule="nonzero">
            <g>
                <g transform="translate(-928 -6979) translate(0 6787) translate(928 192)">
                    <path d="M18.732 0H6.244C2.81 0 0 2.81 0 6.244v12.488c0 3.433 2.81 6.244 6.244 6.244h12.488c3.434 0 6.244-2.81 6.244-6.244V6.244C24.976 2.81 22.166 0 18.732 0zm4.163 18.732c0 2.295-1.867 4.163-4.163 4.163H6.244c-2.295 0-4.162-1.868-4.162-4.163V6.244c0-2.295 1.867-4.163 4.162-4.163h12.488c2.296 0 4.163 1.868 4.163 4.163v12.488z"/>
                    <circle cx="19.253" cy="5.723" r="1.561"/>
                    <path d="M12.488 6.244c-3.449 0-6.244 2.795-6.244 6.244 0 3.447 2.795 6.244 6.244 6.244 3.448 0 6.244-2.797 6.244-6.244 0-3.449-2.796-6.244-6.244-6.244zm0 10.407c-2.299 0-4.162-1.864-4.162-4.163 0-2.3 1.863-4.163 4.162-4.163s4.163 1.863 4.163 4.163c0 2.3-1.864 4.163-4.163 4.163z"/>
                </g>
            </g>
        </g>
    </g>
</svg>
