<svg xmlns="http://www.w3.org/2000/svg" width="15" height="15" viewBox="0 0 15 15">
    <g fill="none" fill-rule="evenodd">
        <g fill="#616161" fill-rule="nonzero">
            <g>
                <g>
                    <path d="M13.737 0H1.249C.562 0 0 .562 0 1.249v12.488c0 .686.562 1.248 1.249 1.248h12.488c.686 0 1.248-.562 1.248-1.248V1.249C14.985.562 14.423 0 13.737 0zm0 13.737H8.742V8.74h3.121V7.493H8.742v-1.25c0-1.034.838-1.872 1.873-1.872h1.248V3.12h-1.248C8.89 3.123 7.493 4.52 7.493 6.245v1.249h-1.25V8.74h1.25v4.996H1.249V1.249h12.488v12.488z" transform="translate(-1300 -72) translate(910 70) translate(390 2)"/>
                </g>
            </g>
        </g>
    </g>
</svg>
