<svg xmlns="http://www.w3.org/2000/svg" width="15" height="15" viewBox="0 0 15 15">
    <g fill="none" fill-rule="evenodd">
        <g fill="#616161" fill-rule="nonzero">
            <g>
                <g transform="translate(-1335 -72) translate(910 70) translate(425 2)">
                    <path d="M11.24 0H3.746C1.687 0 0 1.686 0 3.746v7.493c0 2.06 1.686 3.747 3.747 3.747h7.492c2.06 0 3.747-1.687 3.747-3.747V3.746C14.986 1.686 13.3 0 11.239 0zm2.497 11.24c0 1.376-1.12 2.497-2.498 2.497H3.747c-1.377 0-2.498-1.12-2.498-2.498V3.746c0-1.377 1.12-2.497 2.498-2.497h7.492c1.378 0 2.498 1.12 2.498 2.497v7.493z"/>
                    <circle cx="11.552" cy="3.434" r="1"/>
                    <path d="M7.493 3.746c-2.07 0-3.746 1.677-3.746 3.747 0 2.068 1.676 3.746 3.746 3.746 2.069 0 3.746-1.678 3.746-3.746 0-2.07-1.677-3.747-3.746-3.747zm0 6.245c-1.38 0-2.498-1.119-2.498-2.498 0-1.38 1.119-2.498 2.498-2.498 1.38 0 2.497 1.118 2.497 2.498 0 1.38-1.118 2.498-2.497 2.498z"/>
                </g>
            </g>
        </g>
    </g>
</svg>
